<svg width="50" height="50" viewBox="0 0 50 50" fill="none" xmlns="http://www.w3.org/2000/svg">
    <path fill-rule="evenodd" clip-rule="evenodd"
        d="M41.6667 8.33342H8.33337C7.78084 8.33342 7.25094 8.55291 6.86023 8.94361C6.46953 9.33431 6.25004 9.86421 6.25004 10.4167V39.5834C6.25004 40.136 6.46953 40.6659 6.86023 41.0566C7.25094 41.4473 7.78084 41.6668 8.33337 41.6668H41.6667C42.2192 41.6668 42.7491 41.4473 43.1398 41.0566C43.5305 40.6659 43.75 40.136 43.75 39.5834V10.4167C43.75 9.86421 43.5305 9.33431 43.1398 8.94361C42.7491 8.55291 42.2192 8.33342 41.6667 8.33342ZM8.33337 4.16675C6.67577 4.16675 5.08606 4.82523 3.91396 5.99733C2.74185 7.16943 2.08337 8.75915 2.08337 10.4167V39.5834C2.08337 41.241 2.74185 42.8307 3.91396 44.0028C5.08606 45.1749 6.67577 45.8334 8.33337 45.8334H41.6667C43.3243 45.8334 44.914 45.1749 46.0861 44.0028C47.2582 42.8307 47.9167 41.241 47.9167 39.5834V10.4167C47.9167 8.75915 47.2582 7.16943 46.0861 5.99733C44.914 4.82523 43.3243 4.16675 41.6667 4.16675H8.33337ZM12.5 14.5834H16.6667V18.7501H12.5V14.5834ZM22.9167 14.5834C22.3642 14.5834 21.8343 14.8029 21.4436 15.1936C21.0529 15.5843 20.8334 16.1142 20.8334 16.6667C20.8334 17.2193 21.0529 17.7492 21.4436 18.1399C21.8343 18.5306 22.3642 18.7501 22.9167 18.7501H35.4167C35.9692 18.7501 36.4991 18.5306 36.8898 18.1399C37.2805 17.7492 37.5 17.2193 37.5 16.6667C37.5 16.1142 37.2805 15.5843 36.8898 15.1936C36.4991 14.8029 35.9692 14.5834 35.4167 14.5834H22.9167ZM16.6667 22.9167H12.5V27.0834H16.6667V22.9167ZM20.8334 25.0001C20.8334 24.4475 21.0529 23.9176 21.4436 23.5269C21.8343 23.1362 22.3642 22.9167 22.9167 22.9167H35.4167C35.9692 22.9167 36.4991 23.1362 36.8898 23.5269C37.2805 23.9176 37.5 24.4475 37.5 25.0001C37.5 25.5526 37.2805 26.0825 36.8898 26.4732C36.4991 26.8639 35.9692 27.0834 35.4167 27.0834H22.9167C22.3642 27.0834 21.8343 26.8639 21.4436 26.4732C21.0529 26.0825 20.8334 25.5526 20.8334 25.0001ZM16.6667 31.2501H12.5V35.4167H16.6667V31.2501ZM20.8334 33.3334C20.8334 32.7809 21.0529 32.251 21.4436 31.8603C21.8343 31.4696 22.3642 31.2501 22.9167 31.2501H35.4167C35.9692 31.2501 36.4991 31.4696 36.8898 31.8603C37.2805 32.251 37.5 32.7809 37.5 33.3334C37.5 33.886 37.2805 34.4159 36.8898 34.8066C36.4991 35.1973 35.9692 35.4167 35.4167 35.4167H22.9167C22.3642 35.4167 21.8343 35.1973 21.4436 34.8066C21.0529 34.4159 20.8334 33.886 20.8334 33.3334Z"
        fill="#E81E2C" />
</svg>