<svg width="50" height="50" viewBox="0 0 50 50" fill="none" xmlns="http://www.w3.org/2000/svg">
    <path fill-rule="evenodd" clip-rule="evenodd"
        d="M23.3709 16.5708H13.125V19.1041H17.3667V31.2499H20.4396V19.1041H24.2229L28.3063 31.2499H32.0063L36.9417 16.5708H33.5938L30.2375 28.0853H30.1667L26.8084 16.5708H23.3709ZM4.16669 10.4166C4.16669 9.86405 4.38618 9.33415 4.77688 8.94345C5.16758 8.55275 5.69749 8.33325 6.25002 8.33325H43.75C44.3026 8.33325 44.8325 8.55275 45.2232 8.94345C45.6139 9.33415 45.8334 9.86405 45.8334 10.4166V37.4999C45.8334 38.0525 45.6139 38.5824 45.2232 38.9731C44.8325 39.3638 44.3026 39.5833 43.75 39.5833H6.25002C5.69749 39.5833 5.16758 39.3638 4.77688 38.9731C4.38618 38.5824 4.16669 38.0525 4.16669 37.4999V10.4166ZM16.6667 43.8541C16.6667 42.9916 17.3834 42.2916 18.2354 42.2916H31.7646C31.9703 42.2908 32.1742 42.3306 32.3645 42.4087C32.5548 42.4869 32.7277 42.6018 32.8735 42.747C33.0193 42.8922 33.1349 43.0647 33.2138 43.2547C33.2927 43.4447 33.3334 43.6484 33.3334 43.8541V45.4166H16.6667V43.8541Z"
        fill="#E81E2C" />
</svg>